<svg width="16" height="14" viewBox="0 0 16 14" fill="none" xmlns="http://www.w3.org/2000/svg">
<path d="M15.1176 2.75386C14.8772 2.21497 14.5306 1.72662 14.0972 1.31617C13.6634 0.904488 13.152 0.577333 12.5908 0.352491C12.0088 0.118419 11.3846 -0.00139218 10.7544 1.22046e-05C9.87033 1.22046e-05 9.00774 0.23442 8.25813 0.677189C8.0788 0.783106 7.90843 0.899442 7.74703 1.0262C7.58563 0.899442 7.41527 0.783106 7.23594 0.677189C6.48633 0.23442 5.62374 1.22046e-05 4.73963 1.22046e-05C4.103 1.22046e-05 3.4861 0.118084 2.90327 0.352491C2.34016 0.578217 1.83265 0.902915 1.39688 1.31617C0.962886 1.72616 0.616203 2.21462 0.376476 2.75386C0.127204 3.31471 -0.00012207 3.91027 -0.00012207 4.52321C-0.00012207 5.10141 0.121824 5.70392 0.363923 6.31686C0.566568 6.82908 0.857086 7.3604 1.2283 7.89694C1.81651 8.74601 2.6253 9.63155 3.62956 10.5292C5.29377 12.0173 6.94183 13.0452 7.01177 13.0869L7.43679 13.3508C7.62509 13.4671 7.86719 13.4671 8.05549 13.3508L8.4805 13.0869C8.55044 13.0435 10.1967 12.0173 11.8627 10.5292C12.867 9.63155 13.6758 8.74601 14.264 7.89694C14.6352 7.3604 14.9275 6.82908 15.1283 6.31686C15.3704 5.70392 15.4924 5.10141 15.4924 4.52321C15.4942 3.91027 15.3669 3.31471 15.1176 2.75386Z" fill="white"/>
</svg>
