<svg width="18" height="18" viewBox="0 0 18 18" fill="none" xmlns="http://www.w3.org/2000/svg">
<path d="M16.5117 7.60958L9.53009 1.1865C9.30312 0.977693 9.00424 0.864688 8.6959 0.871109C8.38756 0.87753 8.09364 1.00288 7.87556 1.22096L1.45452 7.64203L1.125 7.97152V17.4375H7.3125V11.5313H10.6875V17.4375H16.875V7.94385L16.5117 7.60958ZM8.72009 1.99587C8.73 1.99587 8.72388 1.99801 8.71963 2.0022C8.71523 1.99801 8.71017 1.99587 8.72009 1.99587ZM15.75 16.3125H11.8125V11.5313C11.8125 11.2329 11.694 10.9467 11.483 10.7358C11.272 10.5248 10.9859 10.4063 10.6875 10.4063H7.3125C7.01413 10.4063 6.72798 10.5248 6.517 10.7358C6.30603 10.9467 6.1875 11.2329 6.1875 11.5313V16.3125H2.25V8.43751L8.72009 2.01644C8.72054 2.01601 8.72058 2.01563 8.72093 2.01521L15.75 8.43751V16.3125Z" fill="#BDBDBD"/>
</svg>
